<?xml version="1.0" encoding="utf-8"?>
<!-- Generator: Adobe Illustrator 16.0.4, SVG Export Plug-In . SVG Version: 6.00 Build 0)  -->
<!DOCTYPE svg PUBLIC "-//W3C//DTD SVG 1.1//EN" "http://www.w3.org/Graphics/SVG/1.1/DTD/svg11.dtd">
<svg version="1.1" id="Layer_1" xmlns="http://www.w3.org/2000/svg" xmlns:xlink="http://www.w3.org/1999/xlink" x="0px" y="0px"
	 width="400px" height="400px" viewBox="0 0 400 400" enable-background="new 0 0 400 400" xml:space="preserve">
<g>
	<path fill="#FFFFFF" d="M204.935,242.711l-76.403,76.402l-47.646-47.645l76.403-76.404l-23.823-23.823
		c-4.653-4.65-10.751-6.977-16.847-6.977c-6.095,0-12.193,2.327-16.846,6.977l-83.379,83.38c-4.65,4.649-6.977,10.748-6.977,16.847
		c0,6.098,2.327,12.196,6.977,16.846l95.291,95.291c4.653,4.65,10.751,6.977,16.846,6.977s12.193-2.326,16.846-6.977l83.38-83.38
		c4.65-4.649,6.977-10.745,6.977-16.84c0-6.102-2.326-12.199-6.977-16.853L204.935,242.711z"/>
	<path fill="#FFFFFF" d="M383.605,111.686l-95.291-95.291c-4.652-4.65-10.751-6.977-16.846-6.977
		c-6.096,0-12.194,2.327-16.847,6.977l-83.38,83.379c-4.65,4.65-6.977,10.748-6.977,16.846c0,6.096,2.327,12.194,6.977,16.847
		l23.823,23.823l76.404-76.403l47.645,47.646l-76.402,76.403l23.822,23.823c4.653,4.65,10.751,6.977,16.847,6.977
		c6.095,0,12.193-2.326,16.846-6.977l83.38-83.38c4.65-4.65,6.977-10.745,6.977-16.84
		C390.582,122.438,388.256,116.338,383.605,111.686z"/>
</g>
</svg>
